<?xml version="1.0" encoding="UTF-8" standalone="no"?>
<!-- Created with Inkscape (http://www.inkscape.org/) -->
<svg
   xmlns:dc="http://purl.org/dc/elements/1.1/"
   xmlns:cc="http://creativecommons.org/ns#"
   xmlns:rdf="http://www.w3.org/1999/02/22-rdf-syntax-ns#"
   xmlns:svg="http://www.w3.org/2000/svg"
   xmlns="http://www.w3.org/2000/svg"
   xmlns:sodipodi="http://sodipodi.sourceforge.net/DTD/sodipodi-0.dtd"
   xmlns:inkscape="http://www.inkscape.org/namespaces/inkscape"
   width="64px"
   height="64px"
   id="svg4274"
   sodipodi:version="0.32"
   inkscape:version="0.46"
   sodipodi:docname="neuron.svg"
   inkscape:output_extension="org.inkscape.output.svg.inkscape">
  <sodipodi:namedview
     id="base"
     pagecolor="#ffffff"
     bordercolor="#666666"
     borderopacity="1.0"
     inkscape:pageopacity="0.0"
     inkscape:pageshadow="2"
     inkscape:zoom="5.5"
     inkscape:cx="36.1"
     inkscape:cy="24.727273"
     inkscape:current-layer="layer1"
     showgrid="true"
     inkscape:document-units="px"
     inkscape:grid-bbox="true"
     inkscape:window-width="873"
     inkscape:window-height="736"
     inkscape:window-x="438"
     inkscape:window-y="98" />
  <defs
     id="defs4276">
    <inkscape:perspective
       id="perspective4282"
       inkscape:persp3d-origin="32 : 21.333333 : 1"
       inkscape:vp_z="64 : 32 : 1"
       inkscape:vp_y="0 : 1000 : 0"
       inkscape:vp_x="0 : 32 : 1"
       sodipodi:type="inkscape:persp3d" />
  </defs>
  <metadata
     id="metadata4279">
    <rdf:RDF>
      <cc:Work
         rdf:about="">
        <dc:format>image/svg+xml</dc:format>
        <dc:type
           rdf:resource="http://purl.org/dc/dcmitype/StillImage" />
      </cc:Work>
    </rdf:RDF>
  </metadata>
  <g
     inkscape:groupmode="layer"
     inkscape:label="Layer 1"
     id="layer1">
    <path
       id="path3544"
       d="M 28.141209,57.637785 C 28.249273,57.988159 28.709899,58.020177 29.203572,58.084295 C 29.585203,58.133864 29.900169,57.96538 30.298034,57.917923 C 30.643022,57.876771 31.019475,57.843206 31.320606,57.742215 C 31.757571,57.595657 32.063325,57.560016 32.45905,57.427289 C 32.797186,57.313878 33.094022,57.028933 33.303982,56.842851 C 33.465614,56.699616 33.774864,56.099218 33.877392,55.914634 C 34.072231,55.563878 34.165216,55.194532 34.279096,54.809832 C 34.416819,54.344597 34.691917,54.305369 34.96419,54.513161 C 35.061244,54.58724 34.900841,55.376834 34.894039,55.506757 C 34.876812,55.835465 34.765123,56.194436 34.658104,56.555948 C 34.538805,56.958957 34.986029,56.986078 35.245117,57.094977 C 35.680303,57.277897 35.845802,57.115439 35.926019,57.569089 C 35.986468,57.910936 35.540415,58.330867 35.352609,58.497301 C 35.000568,58.809286 34.968227,57.889703 34.975341,57.754116 C 34.983597,57.596566 34.001619,57.780696 33.996741,57.781283 C 33.736003,57.812385 33.27727,58.143048 33.029998,58.272768 C 32.731424,58.429408 32.455269,58.611242 32.207052,58.782933 C 31.897887,58.996784 31.765884,59.091481 31.555817,59.469658 C 31.336378,59.86471 31.358429,60.269643 31.463682,60.537526 C 31.586601,60.850394 31.650809,60.962146 31.791033,61.197097 C 31.95043,61.464126 32.067051,61.566264 32.118396,61.85667 C 32.155338,62.065592 32.605915,62.151374 32.915171,62.191539 C 33.242529,62.23406 33.352713,62.474722 33.336394,62.786178 C 33.318025,63.136915 32.885406,63.49402 32.762978,63.714411 C 32.575717,64.051535 32.141261,64.093081 31.818243,64.131608 C 31.518903,64.167326 31.597186,63.515384 31.606759,63.332831 C 31.620425,63.071735 31.198837,62.538322 31.129665,62.422429 C 30.986288,62.182189 30.475343,62.178021 30.145144,62.217409 C 29.911661,62.245258 29.715322,62.912816 29.643635,63.154979 C 29.562677,63.428449 29.004698,63.195675 28.87478,62.977986 C 28.708842,62.699971 28.93145,62.251525 29.110712,61.928797 C 29.308996,61.571838 29.670027,61.482856 29.883755,61.335021 C 30.155731,61.146896 30.210065,60.712874 30.385264,60.397454 C 30.549661,60.101495 30.313968,59.795581 30.267655,59.53374 C 30.229907,59.320188 29.826432,59.139485 29.65866,59.06897 C 29.27877,58.90932 29.149153,58.771412 28.718105,58.715421 C 28.342463,58.66663 27.983303,58.606017 27.617697,58.649623 C 27.215738,58.697558 26.954068,58.717681 26.567212,58.667434 C 26.282911,58.630507 25.682792,58.880418 25.450759,58.908092 C 25.082345,58.952027 24.713891,59.10345 24.334308,59.148734 C 23.928883,59.197092 23.663464,59.340271 23.267761,59.472987 C 22.854432,59.611617 22.47254,59.840051 22.157238,59.9458 C 21.76211,60.078324 21.403942,60.161044 21.112677,60.195783 C 20.751505,60.238855 20.411397,60.333721 20.018213,60.362156 C 19.61388,60.391387 19.716333,60.300844 19.531007,59.990344 C 19.394309,59.761294 19.215991,59.495398 19.059862,59.312098 C 18.870655,59.08997 19.671327,59.007287 19.954698,58.811269 C 20.16189,58.667969 20.637474,58.575279 20.899451,58.394069 C 21.192083,58.191656 21.44707,57.831825 21.666565,57.568126 C 21.982227,57.188853 21.837976,56.94861 21.786622,56.658141 C 21.753969,56.473539 21.294707,56.167337 21.221592,56.044842 C 21.073972,55.797513 20.586061,55.798604 20.352936,55.700617 C 20.039155,55.568735 19.805457,55.407875 19.50626,55.282118 C 19.135736,55.126389 18.960468,55.063763 18.643527,55.170059 C 18.313406,55.280784 18.215612,55.471892 17.79267,55.522328 C 17.449191,55.563296 17.371098,55.149372 17.277546,54.99264 C 17.13853,54.759729 17.479458,54.178154 17.563382,54.027056 C 17.618048,53.92863 18.398282,53.927482 18.492074,53.916297 C 18.605715,53.902735 18.835808,54.3466 19.172965,54.39039 C 19.601507,54.446049 19.790805,54.190719 20.223457,54.372564 C 20.578579,54.521826 20.678275,54.663038 21.164011,54.726127 C 21.525083,54.773025 21.532124,54.985233 21.866902,55.125948 C 22.034098,55.19622 21.925067,54.263205 21.915063,54.206626 C 21.876907,53.990786 21.238736,53.887379 21.046405,53.862399 C 20.737003,53.822211 20.489329,53.628269 20.249646,53.527526 C 19.968805,53.409492 19.468566,53.408032 19.265102,53.322523 C 18.785438,53.120911 18.839348,53.159667 18.865861,52.653614 C 18.893444,52.127036 19.372337,52.2566 19.71673,52.30133 C 20.143867,52.356809 19.951512,52.694685 20.115982,52.970242 C 20.226639,53.155636 21.008747,52.881666 21.11657,52.868804 C 21.555923,52.816402 21.570119,53.24897 21.6097,53.472779 C 21.644612,53.670245 22.235826,53.902983 22.36248,53.956212 C 22.778019,54.130865 22.756588,54.264698 22.905532,54.6438 C 23.043818,54.995777 23.34879,54.192731 23.484876,53.947736 C 23.659122,53.63403 23.715272,53.169439 23.814691,52.833597 C 23.947625,52.384522 23.907348,52.165954 23.834938,51.756394 C 23.766727,51.370663 23.656141,51.14249 23.59552,50.799731 C 23.55169,50.551796 23.370484,50.311598 23.268171,50.14016 C 23.11569,49.884696 23.069325,49.69591 22.940802,49.480586 C 22.73449,49.13491 22.811342,48.930335 22.607514,48.588843 C 22.433123,48.296674 22.290102,48.057051 22.058547,47.669106 C 21.865706,47.346043 21.80088,47.289386 21.399627,47.120736 C 21.110095,46.999038 20.646283,47.022889 20.321224,46.980669 C 19.910256,46.927289 19.686893,46.992707 19.39253,47.091426 C 19.060604,47.20276 18.812137,47.492896 18.547597,47.675864 C 18.234325,47.892566 17.843557,48.171964 17.586798,48.399521 C 17.246059,48.701485 16.968504,48.45745 16.983728,48.16692 C 17.00809,47.70195 16.625322,47.87548 16.938013,47.312545 C 17.14695,46.936409 17.56936,46.95062 17.954658,46.904667 C 18.283201,46.86548 18.541601,46.645906 18.727686,46.310893 C 18.878189,46.039973 18.205186,45.986883 18.024809,45.911069 C 17.717992,45.782125 17.280495,45.807036 17.040282,45.706067 C 16.807833,45.608374 16.595555,45.233997 16.475257,45.09277 C 16.269799,44.85156 16.042261,44.709528 15.838326,44.470116 C 15.631351,44.227109 15.631805,43.921919 15.648826,43.597065 C 15.670466,43.184095 15.937955,42.866824 16.172329,42.585208 C 16.501222,42.190065 16.589854,42.052465 16.989341,41.842891 C 17.096063,41.786907 17.123397,42.600995 17.12894,42.632332 C 17.1926,42.992316 17.022458,43.420473 17.0867,43.783824 C 17.165611,44.230087 17.414752,44.255764 17.795522,44.4158 C 18.122985,44.553427 18.332513,44.734553 18.548318,44.899235 C 18.786971,45.081368 19.03694,45.11697 19.438967,45.169185 C 19.772995,45.212573 20.081333,45.334782 20.329615,45.439125 C 20.662021,45.578836 21.044284,45.620319 21.270165,45.792687 C 21.473517,45.947883 21.855399,46.022958 22.160816,46.062627 C 22.613114,46.121374 22.652442,46.301221 22.985504,46.555394 C 23.182688,46.705897 23.312286,47.10289 23.434661,47.307918 C 23.619258,47.617209 23.659678,47.797298 23.88382,48.060435 C 24.116871,48.334059 23.917135,48.704472 24.143468,47.939907 C 24.248623,47.584675 24.154808,47.209522 24.119739,47.011244 C 24.042889,46.57665 24.197525,46.363766 23.974214,45.989636 C 23.795997,45.691046 23.766474,45.410678 23.712814,45.107245 C 23.656276,44.787527 23.696786,44.377121 23.711086,44.104317 C 23.730516,43.733277 23.842641,43.407666 23.947003,43.055122 C 24.133411,42.425425 24.698515,43.091938 24.737848,43.157841 C 24.91673,43.457545 24.971279,43.537942 24.949334,43.956619 C 24.929156,44.341821 24.833428,44.691453 24.879183,44.950214 C 24.931494,45.246047 24.922042,45.513596 24.902908,45.878875 C 24.884473,46.230662 24.965573,46.409638 24.948627,46.733248 C 24.935582,46.982048 25.050246,47.307952 25.08822,47.522693 C 25.140451,47.818073 25.03523,48.188633 25.018071,48.516288 C 24.99978,48.865165 25.261538,49.098745 25.301442,49.32442 C 25.354959,49.627008 25.363256,49.871661 25.347159,50.17879 C 25.326259,50.577784 25.256495,50.989444 25.13914,51.38588 C 25.03108,51.750914 24.897548,52.16773 24.759426,52.416398 C 24.525642,52.837274 24.729824,53.043441 24.783158,53.345043 C 24.798052,53.429299 25.525631,52.949618 25.584113,52.909167 C 25.964844,52.645815 26.205458,52.401929 26.516993,52.027627 C 26.722734,51.780428 26.800834,51.320984 26.896709,50.997109 C 27.032365,50.538857 27.097797,50.267356 27.398233,50.059546 C 27.85496,49.74363 27.48277,50.782784 27.443953,50.91392 C 27.296577,51.411766 27.567656,51.547037 27.986989,51.601505 C 28.268767,51.638105 28.532214,51.020694 28.610309,50.756884 C 28.691691,50.481965 28.913866,50.002256 29.061924,49.735708 C 29.302608,49.302401 29.658397,49.086868 30.088688,48.789234 C 30.38109,48.58698 30.924341,48.582077 31.205136,48.548592 C 31.730994,48.485876 31.529415,48.921575 31.510515,49.282436 C 31.483302,49.801668 31.196269,49.913258 30.887198,50.127056 C 30.651255,50.290244 30.266232,50.320308 29.942445,50.544257 C 29.506471,50.845818 29.452057,51.080567 29.722568,51.287021 C 30.136004,51.602518 30.479958,50.991983 30.44745,51.612558 C 30.435184,51.846655 29.710204,52.022931 29.574582,52.03911 C 29.140581,52.09088 28.898857,52.318951 28.72965,52.623547 C 28.522509,52.996465 28.283923,53.21785 28.062359,53.616709 C 27.880165,53.944728 27.48454,54.193588 27.151464,54.423976 C 26.822681,54.651396 26.507974,54.626125 26.106903,54.673957 C 25.776782,54.713337 25.445931,54.99599 25.162167,55.091162 C 24.923415,55.171237 24.492435,55.648174 24.367135,55.759221 C 24.061543,56.030035 23.832621,56.401408 23.556044,56.733708 C 23.363699,56.964802 23.310313,57.624679 23.298141,57.857169 C 23.279232,58.217796 24.126232,58.1525 24.260678,58.136462 C 24.671538,58.087451 24.990102,57.927254 25.277307,57.728587 C 25.615086,57.494958 26.011277,57.372344 26.365844,57.330045 C 26.736291,57.285864 26.95833,57.144639 27.282684,56.754947 C 27.458021,56.544294 27.802267,56.277429 27.983819,56.151837 C 28.238763,55.97549 28.450015,55.639581 28.657053,55.390841 C 28.903863,55.094298 29.061611,54.940981 29.402164,54.639184 C 29.697598,54.377357 29.975434,54.131136 30.313059,53.831918 C 30.619627,53.560235 30.932965,53.282542 31.223959,53.024652 C 31.577987,52.710912 31.816742,52.378368 32.062964,52.208046 C 32.402916,51.97291 32.655418,51.639795 32.923954,51.317169 C 33.144342,51.052369 33.383379,50.717332 33.641145,50.40763 C 33.865738,50.13779 33.927208,49.649792 34.114758,49.312164 C 34.337234,48.911622 34.665242,48.633348 34.875927,48.254066 C 35.09459,47.860404 35.393374,47.778012 35.670953,47.586022 C 36.008695,47.352408 36.341978,47.366946 36.599634,47.475244 C 36.625746,47.48622 36.073049,48.35388 36.004247,48.477749 C 35.810135,48.827204 35.500305,49.226789 35.243065,49.535845 C 34.966216,49.868492 34.71793,50.350839 35.166981,50.297289 C 35.356433,50.274688 35.777793,49.659123 35.934082,49.471344 C 36.250069,49.091697 36.251963,48.89558 36.757029,48.961179 C 37.145832,49.01168 37.500266,49.073102 37.719582,49.240475 C 37.982781,49.441338 38.413502,49.055811 38.54846,48.962461 C 38.977881,48.665433 39.291435,48.942432 39.273321,49.288007 C 39.254772,49.642095 38.969443,50.251392 38.849628,50.467089 C 38.595082,50.925332 38.648778,51.036204 38.104506,51.218741 C 37.749595,51.337774 37.312543,51.024104 37.213873,50.948804 C 36.938921,50.738968 37.192179,50.365932 36.692806,50.186944 C 36.482698,50.111623 35.76121,50.595057 35.560297,50.734026 C 35.161294,51.010029 34.734554,51.246124 34.361826,51.503929 C 34.050811,51.719059 33.897696,51.943106 33.660686,52.107056 C 33.314951,52.346187 33.075753,52.680226 32.727808,52.98858 C 32.405537,53.274183 32.186946,53.539895 31.816912,53.795848 C 31.499999,54.015053 31.31858,54.346717 31.143674,54.556853 C 30.89007,54.861559 30.675343,55.057989 30.420549,55.234241 C 30.1594,55.414874 29.965528,55.783598 29.653433,56.060182 C 29.366369,56.314596 29.112944,56.565986 28.908327,56.81184 C 28.604233,57.177198 28.448142,57.211115 28.141209,57.637785 z"
       style="fill:#a276c6;fill-opacity:1;fill-rule:evenodd;stroke:#000000;stroke-width:0.35255575;stroke-linecap:round;stroke-linejoin:round;stroke-miterlimit:4;stroke-dasharray:none;stroke-opacity:1;display:inline" />
    <path
       id="path3428"
       d="M 45.20718,28.14653 L 45.77388,30.5407 L 45.303996,32.787067 L 44.466347,35.420737 L 45.427821,34.219513 L 45.870686,35.181232 L 46.167712,33.655838 L 46.566567,32.508231 L 46.836874,31.954082 L 47.505724,32.489174 L 47.297336,33.759536 L 46.747606,36.682794 L 46.543627,38.164088 L 47.37215,37.345405 L 47.832922,36.914009 L 48.501771,37.449102 L 48.780565,39.553674 L 48.949341,36.384909 L 49.104619,34.820193 L 49.374925,34.266042 L 50.460224,34.497265 L 51.075968,34.737996 L 47.975605,30.242805 L 47.24484,28.991502 L 47.368993,28.187091 L 48.365677,28.673316 L 50.04,30.116518 L 51.346588,31.947013 L 52.351742,35.091957 L 53.197554,37.353836 L 53.423225,39.16406 L 53.622503,39.708669 L 53.671536,37.555249 L 53.614018,37.049959 C 53.614018,37.049959 53.795684,36.75084 53.990565,37.084527 C 54.185431,37.418205 54.92059,38.880448 54.92059,38.880448 L 55.456487,39.798074 L 55.633768,39.288029 L 55.173306,37.482575 L 53.764877,35.274312 L 52.741796,33.522473 L 53.083136,31.869579 L 53.636954,31.394086 L 55.040985,33.391429 L 55.83366,35.358964 L 56.147981,36.914147 L 56.599645,38.297729 L 56.989386,38.965093 L 57.401443,38.450285 L 57.972855,38.818528 L 58.411315,39.569314 L 57.946454,37.552939 L 57.596631,36.547128 L 59.598773,37.941466 L 57.68086,36.08116 L 56.803942,34.579597 L 56.259245,33.240095 L 56.108684,32.778899 L 58.956955,34.198282 L 59.37782,34.10533 L 59.696832,33.634616 L 55.466552,31.272564 L 51.289385,29.204874 L 49.526411,28.016712 L 50.310618,27.325531 L 51.196651,27.012121 L 52.228857,26.948979 L 56.171229,29.021428 L 58.638555,30.19532 L 59.963062,30.632686 L 60.530071,30.790014 L 61.362683,32.419095 L 63.00589,34.622597 L 63.417945,34.107785 L 64.024873,33.926652 L 63.015,32.807624 L 62.005124,31.688581 L 62.089359,31.222631 L 62.59885,30.874653 L 60.561195,30.029692 L 58.195694,29.233584 L 56.720643,28.335017 L 55.865719,27.888112 L 56.326492,27.456717 L 57.823865,27.173123 L 58.616865,26.903802 L 58.652381,26.354423 L 57.518351,26.039792 L 56.300093,26.191126 L 55.551413,26.332919 L 54.993202,26.59747 L 54.045249,26.194651 L 52.716334,25.546349 L 50.700674,25.75605 L 49.677283,26.241059 L 49.070359,26.422192 L 45.982891,24.796645 L 43.502371,22.989969 L 41.588849,21.340605 L 40.512649,19.294417 L 40.915913,18.357743 L 41.855064,18.338685 L 42.851745,18.824931 L 44.131922,19.389822 L 43.07773,18.398286 L 42.732303,17.603414 L 43.901846,17.368665 L 45.363707,17.634448 L 46.209825,17.659483 L 47.00722,17.601104 L 47.738305,16.615572 L 47.959894,15.978004 L 47.073863,16.291412 L 45.758158,16.275889 L 44.637339,16.594067 L 43.928567,16.397422 L 44.065928,16.225821 L 45.457058,15.353507 L 46.848177,14.481199 L 47.689899,14.295306 L 48.868252,14.482415 L 50.006675,15.007986 L 51.34878,16.2891 L 52.190186,18.340046 L 53.607416,20.970184 L 54.098986,22.015324 L 54.391291,22.515848 L 53.979552,20.79382 L 54.643995,21.117979 L 55.126784,21.74125 L 55.600756,21.942651 L 54.772553,20.524503 L 53.377649,16.712182 L 52.204017,14.499159 L 50.480969,12.972552 L 49.524213,12.14786 L 48.718011,11.784383 L 49.635167,10.710666 L 47.778849,11.80343 L 46.764259,12.710313 L 45.656634,13.661274 L 45.771992,12.435004 L 45.772303,10.198155 L 46.366033,9.3842377 L 46.122439,8.9671307 L 45.927566,8.6334435 L 45.404878,8.3486242 L 44.740116,10.261302 L 44.51381,12.924781 L 43.605448,14.420374 L 42.595262,15.538181 L 41.571871,16.023191 L 40.53528,15.875404 L 38.785524,15.320031 L 38.059159,14.279648 L 37.802365,13.229748 L 38.719525,12.15603 L 43.13682,7.7193603 L 45.285746,4.8902621 L 46.158584,3.9440677 L 46.003632,3.2719325 L 44.709929,4.3110789 L 43.651025,5.34547 L 43.292084,6.1546488 L 42.671947,5.7029745 L 42.96018,3.755719 L 42.978397,0.1257612 L 42.530827,1.1899519 L 42.623543,3.3827106 L 41.852865,2.4698358 L 41.370084,1.8465763 L 41.272335,3.9165788 L 41.422574,6.6146097 L 41.262905,7.968388 L 40.651569,7.9385874 L 39.703937,5.2989354 L 39.713039,3.4839492 L 39.513763,2.9393392 L 38.773885,3.5030081 L 38.246795,3.0072366 L 39.01277,5.9460213 L 39.291565,8.0505924 L 39.229332,9.5712171 L 38.409611,10.811779 L 36.969753,11.600667 L 35.472391,11.884273 L 34.564334,11.143003 L 33.94893,8.6654275 L 34.361297,5.9137691 L 34.370421,4.098788 L 35.464841,2.5150188 L 33.825397,4.9961426 L 33.174159,5.3047822 L 32.824319,4.2989759 L 32.851042,3.3277326 L 32.252911,3.9307272 L 31.451107,3.7781729 L 30.782258,3.2430825 L 32.208283,6.2950818 L 32.628825,8.4389809 L 32.367328,9.4149862 L 30.599963,8.015884 L 29.833683,7.3139611 L 32.934018,11.809148 L 33.611683,12.766109 L 33.903993,13.266629 L 32.278061,14.1437 L 31.343307,14.373682 L 30.785084,14.638239 L 28.725425,12.738607 L 26.523996,10.799662 L 25.350376,8.5866346 L 25.217413,8.9691775 L 26.116343,11.525407 L 24.796238,11.298962 L 22.993361,10.449239 L 21.571433,9.8450199 L 20.915772,9.9427319 L 23.099596,11.037947 L 22.922331,11.547997 L 21.947662,12.116424 L 21.061616,12.429841 L 20.361651,12.655051 L 22.625309,13.073391 L 23.852368,13.343934 L 25.265497,13.526278 L 27.436124,13.988709 L 28.911177,14.887278 L 29.7793,15.966978 L 29.420358,16.776156 L 28.05594,16.677218 L 25.132233,16.14566 L 23.727899,16.385178 L 21.517368,16.261203 L 23.351354,16.35061 L 24.299325,16.75342 L 24.591631,17.253941 L 23.612555,17.611446 L 22.026547,18.15007 L 22.916985,18.047597 L 24.981375,17.921308 L 26.904007,17.755697 L 28.179781,18.109654 L 29.415655,18.802064 L 29.672439,19.851954 L 28.219072,22.244889 L 27.022815,23.450899 L 26.477806,24.348242 L 27.257295,25.682973 L 28.666023,25.654398 L 32.847911,25.696176 L 34.850065,27.090508 L 36.014889,28.881673 L 36.674626,31.231737 L 37.183809,33.120619 L 37.444988,34.381451 L 35.09207,38.691834 L 35.481815,39.359202 L 36.509613,39.085125 L 36.434175,39.972953 L 36.943356,41.861821 L 37.714359,40.537844 L 37.847623,37.918463 L 38.304011,37.27614 L 38.804393,38.743148 L 40.996387,44.733919 L 41.953135,45.558593 L 41.749784,42.56621 L 41.262603,41.731998 L 41.918248,41.634292 L 41.045731,40.343649 L 38.884531,35.829412 L 37.804247,31.335434 L 37.529863,29.441797 L 38.615175,29.673011 L 39.948465,30.532262 L 40.727956,31.866994 L 40.559179,35.035755 L 40.766936,38.239078 L 40.842048,39.588104 L 41.435786,38.774166 L 42.693656,40.521237 L 42.578613,39.510663 L 41.843437,38.048424 L 41.453691,37.381058 L 41.985514,35.850909 L 42.618847,36.935379 L 42.91555,37.646843 L 43.336414,37.553886 L 44.328677,37.829187 L 43.30121,35.86642 L 41.954704,34.374382 L 41.551762,33.074219 L 41.494243,32.568927 L 42.535243,32.92765 L 42.969293,33.467495 L 43.523111,32.992009 L 42.353884,30.989918 L 40.059419,29.095051 L 38.491339,28.240574 L 37.538973,27.626823 L 36.763895,26.503023 L 36.073026,24.913269 L 36.290217,24.064782 C 36.290217,24.064782 36.241495,23.981353 36.662368,23.888409 C 37.083216,23.795461 37.978065,23.903924 37.978065,23.903924 L 40.387867,24.57251 L 42.044592,25.171971 L 44.139778,26.522217 L 45.20718,28.14653 z"
       style="fill:#a277c6;fill-opacity:1;fill-rule:evenodd;stroke:#000000;stroke-width:0.33324945;stroke-linecap:round;stroke-linejoin:round;stroke-miterlimit:4;stroke-dasharray:none;stroke-opacity:1;display:inline" />
    <path
       id="path3430"
       d="M 37.364692,19.506196 C 37.770018,19.239293 37.914489,18.582746 37.675381,18.128835 C 37.432539,17.516607 36.883958,17.13273 36.322987,16.992434 C 35.673958,16.823293 34.952728,16.960964 34.417766,17.428354 C 33.954843,17.807245 33.612145,18.399822 33.537498,19.047421 C 33.494631,19.439364 33.713389,19.831258 34.035042,19.969267 C 34.471259,20.194807 34.963119,20.107508 35.425986,20.083803 C 36.09386,20.020622 36.762236,19.84729 37.364692,19.506196 z"
       style="fill:#a5c069;fill-opacity:1;stroke:#000000;stroke-width:0.25723603;stroke-linecap:round;stroke-linejoin:round;stroke-miterlimit:4;stroke-opacity:1;display:inline" />
    <path
       id="path3435"
       d="M 27.581617,25.188719 L 26.164486,23.703675 L 25.069136,23.38648 L 22.405371,24.194564 L 19.913274,25.459449 L 18.248089,26.898634 L 18.193876,28.364696 L 18.494375,28.956487 L 20.964599,28.776249 L 24.208405,27.745332 L 26.120461,26.703279 L 27.581617,25.188719 z"
       style="fill:#eede6e;fill-opacity:1;fill-rule:evenodd;stroke:#000000;stroke-width:0.31614056;stroke-linecap:round;stroke-linejoin:round;stroke-miterlimit:6.0999999;stroke-dasharray:none;stroke-opacity:1;display:inline" />
    <path
       id="path3485"
       d="M 17.179002,29.843759 L 16.853887,28.461599 L 15.999438,27.901222 L 14.944919,27.97151 L 12.919253,28.740793 L 11.977275,29.124948 L 10.130823,30.711047 L 8.9595987,32.040717 L 8.9179178,32.796152 L 9.6181502,33.798107 L 10.580973,34.106035 L 11.918918,34.033757 L 14.849064,32.06252 L 16.524619,30.79226 L 17.179002,29.843759 z"
       style="fill:#eede6e;fill-opacity:1;fill-rule:evenodd;stroke:#000000;stroke-width:0.31614056;stroke-linecap:round;stroke-linejoin:round;stroke-miterlimit:4;stroke-dasharray:none;stroke-opacity:1;display:inline" />
    <path
       id="path3487"
       d="M 8.9915265,35.715604 L 9.0295722,34.887841 L 8.1727117,33.840982 L 7.0237332,33.758972 L 5.870926,33.994934 L 5.0744702,34.916047 L 3.5953372,36.62669 L 2.8138996,38.627714 L 2.4875862,40.102414 L 3.3482686,40.831331 L 4.5768363,41.291561 L 5.7826996,41.30776 L 7.0077302,39.734217 L 8.809359,36.866835 L 8.9915265,35.715604 z"
       style="fill:#efdf6e;fill-opacity:1;fill-rule:evenodd;stroke:#000000;stroke-width:0.31614056;stroke-linecap:butt;stroke-linejoin:miter;stroke-miterlimit:4;stroke-dasharray:none;stroke-opacity:1;display:inline"
       inkscape:transform-center-x="0.93676288"
       inkscape:transform-center-y="-4.2275258" />
    <path
       id="path3490"
       d="M 5.400843,48.906589 L 5.374833,44.963587 L 5.2914248,43.631538 L 4.8152766,42.763168 L 3.4699017,42.126275 L 2.7410142,42.033113 L 2.2362388,42.311184 L 1.5910999,42.913884 L 1.4221315,44.384955 L 1.4772485,46.227266 L 1.5886328,47.685223 L 1.8122385,49.010715 L 2.2605788,49.435076 L 3.0172574,49.972248 L 3.886318,50.058861 L 4.4470532,50.03265 L 5.1481141,49.681804 L 5.400843,48.906589 z"
       style="fill:#efdf6f;fill-opacity:1;fill-rule:evenodd;stroke:#000000;stroke-width:0.31614056;stroke-linecap:butt;stroke-linejoin:miter;stroke-miterlimit:4;stroke-dasharray:none;stroke-opacity:1;display:inline"
       inkscape:transform-center-x="3.2838549"
       inkscape:transform-center-y="4.2850952" />
    <path
       id="path3534"
       d="M 19.050629,57.998985 L 15.608275,57.087232 L 13.244984,56.793605 L 11.960743,57.118105 L 10.860208,58.257545 L 10.874711,59.711558 L 13.304054,60.761502 L 15.375697,61.15091 L 17.094458,61.364457 L 18.403942,61.615156 L 19.550137,61.141486 L 20.261806,60.129756 L 20.487403,59.277656 L 20.44174,58.611887 L 19.050629,57.998985 z"
       style="fill:#efdf6f;fill-opacity:1;fill-rule:evenodd;stroke:#000000;stroke-width:0.32551453;stroke-linecap:round;stroke-linejoin:round;stroke-miterlimit:4;stroke-dasharray:none;stroke-opacity:1;display:inline" />
    <path
       id="path3548"
       d="M 17.147213,29.397257 C 17.243917,29.349406 17.609258,29.168635 17.836819,29.056037 C 18.027679,28.961598 18.23379,28.916669 18.39712,28.778796 C 18.605478,28.602927 18.387793,28.212314 18.334215,28.034031 C 18.248135,27.747647 17.99635,27.738349 17.78942,27.786325 C 17.466203,27.861259 17.361758,27.988717 17.283245,28.243682 C 17.221641,28.443733 17.247726,28.619739 17.316351,28.848034 C 17.355273,28.977567 17.217207,29.240169 17.147213,29.397257 z"
       style="fill:#a276c6;fill-opacity:1;fill-rule:evenodd;stroke:#000000;stroke-width:0.31614056;stroke-linecap:butt;stroke-linejoin:round;stroke-miterlimit:4;stroke-dasharray:none;stroke-opacity:1;display:inline" />
    <path
       id="path3552"
       d="M 9.1433527,34.756249 C 9.2006073,34.819755 9.4460686,34.311808 9.4581526,34.235409 C 9.4810502,34.090766 9.1498881,33.845222 9.0297328,33.711979 C 8.8508707,33.513631 8.9651898,33.396141 8.6676145,33.503733 C 8.4579757,33.579547 8.3492756,33.715153 8.1859717,33.904015 C 8.0749999,34.032359 8.4350669,34.20457 8.5309818,34.367166 C 8.6478224,34.56519 8.6785597,34.68762 8.8342931,34.800167 C 8.9233099,34.864496 9.0403269,34.770888 9.1433527,34.756249 z"
       style="fill:#a276c6;fill-opacity:1;fill-rule:evenodd;stroke:#000000;stroke-width:0.31614056;stroke-linecap:butt;stroke-linejoin:round;stroke-miterlimit:4;stroke-dasharray:none;stroke-opacity:1;display:inline"
       inkscape:transform-center-x="-2.1167782"
       inkscape:transform-center-y="-7.6181792" />
    <path
       id="path3554"
       d="M 4.4376424,42.123182 C 4.5262663,42.1861 4.5767444,41.63349 4.5500967,41.513553 C 4.4815759,41.205083 4.0488792,41.30592 3.8633412,41.291197 C 3.6748644,41.27625 3.3636398,41.116977 3.2466762,41.065562 C 3.12758,41.013204 2.8717698,41.349247 2.7979241,41.436429 C 2.6077474,41.660954 2.7441345,41.702057 3.0500608,41.774532 C 3.2991186,41.833545 3.4205438,41.835129 3.6527395,41.937208 C 4.0272907,42.10186 4.0295296,42.315854 4.4376424,42.123182 z"
       style="fill:#a276c6;fill-opacity:1;fill-rule:evenodd;stroke:#000000;stroke-width:0.31614056;stroke-linecap:butt;stroke-linejoin:round;stroke-miterlimit:4;stroke-dasharray:none;stroke-opacity:1;display:inline"
       inkscape:transform-center-x="3.0614788"
       inkscape:transform-center-y="-0.13116905" />
    <path
       id="path3556"
       d="M 10.947219,58.180346 C 11.037722,58.126744 11.341568,57.736151 11.438669,57.581315 C 11.599548,57.324798 11.196845,57.155207 11.131977,57.147156 C 10.888769,57.116938 10.713738,57.029187 10.525849,57.005839 C 10.328195,56.98128 10.201303,57.40027 10.159812,57.466426 C 10.023506,57.683777 9.9090409,57.74309 9.8525789,57.956337 C 9.7916578,58.186444 9.5386211,58.169491 9.7115833,58.4889 C 9.7258263,58.515175 10.21751,58.54009 10.307509,58.584942 C 10.570491,58.715988 10.452226,58.877789 10.767819,58.774146 C 10.866148,58.741853 10.930434,58.274173 10.947219,58.180346 z"
       style="fill:#a276c6;fill-opacity:1;fill-rule:evenodd;stroke:#000000;stroke-width:0.32551453;stroke-linecap:butt;stroke-linejoin:round;stroke-miterlimit:4;stroke-dasharray:none;stroke-opacity:1;display:inline" />
    <path
       transform="matrix(-0.114752,6.0611438e-2,-5.3011e-2,-8.4544968e-2,85.617702,59.091223)"
       sodipodi:open="true"
       sodipodi:end="11.773355"
       sodipodi:start="5.6312911"
       d="M 270.82307,578.68696 A 7.729105,5.3244948 0 1 1 270.10244,578.12374"
       sodipodi:ry="5.3244948"
       sodipodi:rx="7.729105"
       sodipodi:cy="581.9173"
       sodipodi:cx="264.67892"
       id="path3564"
       style="fill:#f39649;fill-opacity:1;stroke:#000000;stroke-width:2.29999995;stroke-linecap:round;stroke-linejoin:round;stroke-miterlimit:4;stroke-dasharray:none;stroke-opacity:1;display:inline"
       sodipodi:type="arc" />
    <path
       transform="matrix(-0.1268246,3.0133839e-2,-2.9172472e-2,-9.490036e-2,63.970871,77.286116)"
       sodipodi:open="true"
       sodipodi:end="11.773355"
       sodipodi:start="5.6312911"
       d="M 270.82307,578.68696 A 7.729105,5.3244948 0 1 1 270.10244,578.12374"
       sodipodi:ry="5.3244948"
       sodipodi:rx="7.729105"
       sodipodi:cy="581.9173"
       sodipodi:cx="264.67892"
       id="path3566"
       style="fill:#f39649;fill-opacity:1;stroke:#000000;stroke-width:2.29999995;stroke-linecap:round;stroke-linejoin:round;stroke-miterlimit:4;stroke-dasharray:none;stroke-opacity:1;display:inline"
       sodipodi:type="arc" />
    <path
       transform="matrix(-6.6994831e-2,9.3491298e-2,-9.5220497e-2,-5.9892452e-2,78.212333,47.69264)"
       sodipodi:open="true"
       sodipodi:end="11.773355"
       sodipodi:start="5.6312911"
       d="M 270.82307,578.68696 A 7.729105,5.3244948 0 1 1 270.10244,578.12374"
       sodipodi:ry="5.3244948"
       sodipodi:rx="7.729105"
       sodipodi:cy="581.9173"
       sodipodi:cx="264.67892"
       id="path3568"
       style="fill:#f39649;fill-opacity:1;stroke:#000000;stroke-width:2.29999995;stroke-linecap:round;stroke-linejoin:round;stroke-miterlimit:4;stroke-dasharray:none;stroke-opacity:1;display:inline"
       sodipodi:type="arc"
       inkscape:transform-center-x="1.6255834"
       inkscape:transform-center-y="-4.1755293" />
    <path
       transform="matrix(6.0668467e-3,0.1181129,-0.1098395,-9.6688658e-3,65.527253,20.075423)"
       sodipodi:open="true"
       sodipodi:end="11.773355"
       sodipodi:start="5.6312911"
       d="M 270.82307,578.68696 A 7.729105,5.3244948 0 1 1 270.10244,578.12374"
       sodipodi:ry="5.3244948"
       sodipodi:rx="7.729105"
       sodipodi:cy="581.9173"
       sodipodi:cx="264.67892"
       id="path3570"
       style="fill:#f39649;fill-opacity:1;stroke:#000000;stroke-width:2.29999995;stroke-linecap:round;stroke-linejoin:round;stroke-miterlimit:4;stroke-dasharray:none;stroke-opacity:1;display:inline"
       sodipodi:type="arc"
       inkscape:transform-center-x="3.4791435"
       inkscape:transform-center-y="3.9500464" />
    <path
       transform="matrix(0.1303406,4.856219e-3,-1.8287251e-2,0.1043664,-7.927448,-3.0419854)"
       sodipodi:open="true"
       sodipodi:end="11.773355"
       sodipodi:start="5.6312911"
       d="M 270.82307,578.68696 A 7.729105,5.3244948 0 1 1 270.10244,578.12374"
       sodipodi:ry="5.3244948"
       sodipodi:rx="7.729105"
       sodipodi:cy="581.9173"
       sodipodi:cx="264.67892"
       id="path3572"
       style="fill:#f39649;fill-opacity:1;stroke:#000000;stroke-width:2.29999995;stroke-linecap:round;stroke-linejoin:round;stroke-miterlimit:4;stroke-dasharray:none;stroke-opacity:1;display:inline"
       sodipodi:type="arc" />
    <path
       id="path5081"
       d="M 10.131985,55.636958 L 8.151828,53.033176 L 6.5715895,51.482011 L 5.3912542,50.983457 L 3.8074658,51.169007 L 2.8523024,52.211654 L 3.9796598,54.338393 L 5.2771721,55.792051 L 6.4264398,56.920172 L 7.2435716,57.842268 L 8.4193145,58.156294 L 9.6261315,57.840737 L 10.361744,57.362669 L 10.769785,56.863096 L 10.131985,55.636958 z"
       style="fill:#efdf6f;fill-opacity:1;fill-rule:evenodd;stroke:#000000;stroke-width:0.31082577;stroke-linecap:round;stroke-linejoin:round;stroke-miterlimit:4;stroke-dasharray:none;stroke-opacity:1;display:inline"
       inkscape:transform-center-x="1.4031164"
       inkscape:transform-center-y="0.46737758" />
    <path
       id="path5083"
       d="M 3.9241208,51.163508 C 4.0277232,51.176777 4.5154872,51.071476 4.6913047,51.016474 C 4.9825906,50.925357 4.7927548,50.575983 4.749374,50.533412 C 4.586751,50.373782 4.5135686,50.211941 4.3879367,50.088617 C 4.2557738,49.958884 3.8820697,50.18489 3.8069483,50.208391 C 3.560144,50.285598 3.4347479,50.262782 3.2506504,50.382421 C 3.0519997,50.511523 2.87318,50.355745 2.7908937,50.681215 C 2.784135,50.707998 3.1369383,51.004982 3.1747488,51.088008 C 3.2852335,51.330602 3.0888909,51.378539 3.3948295,51.484053 C 3.4901492,51.516926 3.8491737,51.220723 3.9241208,51.163508 z"
       style="fill:#a276c6;fill-opacity:1;fill-rule:evenodd;stroke:#000000;stroke-width:0.31082577;stroke-linecap:butt;stroke-linejoin:round;stroke-miterlimit:4;stroke-dasharray:none;stroke-opacity:1;display:inline"
       inkscape:transform-center-x="4.3936474"
       inkscape:transform-center-y="-3.334851" />
    <path
       transform="matrix(9.4686747e-2,7.7484085e-2,-8.3079565e-2,6.3861562e-2,30.421918,-3.1113258)"
       sodipodi:open="true"
       sodipodi:end="11.773355"
       sodipodi:start="5.6312911"
       d="M 270.82307,578.68696 A 7.729105,5.3244948 0 1 1 270.10244,578.12374"
       sodipodi:ry="5.3244948"
       sodipodi:rx="7.729105"
       sodipodi:cy="581.9173"
       sodipodi:cx="264.67892"
       id="path5085"
       style="fill:#f39649;fill-opacity:1;stroke:#000000;stroke-width:2.29999995;stroke-linecap:round;stroke-linejoin:round;stroke-miterlimit:4;stroke-dasharray:none;stroke-opacity:1;display:inline"
       sodipodi:type="arc"
       inkscape:transform-center-x="1.0760921"
       inkscape:transform-center-y="0.45672842" />
  </g>
</svg>
